<?xml version="1.0" standalone="no"?>
<!DOCTYPE svg PUBLIC "-//W3C//DTD SVG 20010904//EN"
 "http://www.w3.org/TR/2001/REC-SVG-20010904/DTD/svg10.dtd">
<svg version="1.0" xmlns="http://www.w3.org/2000/svg"
 width="1080.000000pt" height="1080.000000pt" viewBox="0 0 1080.000000 1080.000000"
 preserveAspectRatio="xMidYMid meet">
<metadata>
Created by potrace 1.14, written by Peter Selinger 2001-2017
</metadata>
<g transform="translate(0.000000,1080.000000) scale(0.100000,-0.100000)"
fill="#000000" stroke="none">
<path d="M0 5400 l0 -5400 5400 0 5400 0 0 5400 0 5400 -5400 0 -5400 0 0
-5400z m3711 2429 c174 -102 196 -148 111 -228 -53 -51 -529 -322 -616 -353
-61 -21 -175 -23 -237 -5 -40 12 -295 155 -287 162 2 1 172 98 378 215 206
117 404 230 440 251 36 21 71 36 78 34 7 -3 67 -37 133 -76z m524 -309 c93
-55 172 -103 177 -108 4 -4 -22 -23 -56 -43 l-64 -37 -115 68 -115 67 -103
-59 c-57 -33 -108 -63 -112 -67 -4 -5 30 -30 77 -57 47 -27 86 -51 86 -54 0
-7 -116 -70 -129 -70 -5 0 -48 23 -95 51 l-85 51 -130 -74 c-72 -40 -131 -75
-131 -78 0 -3 45 -31 100 -64 55 -32 102 -62 105 -66 3 -5 -22 -25 -56 -45
l-61 -36 -175 104 c-96 57 -175 107 -175 112 -1 10 859 503 878 504 5 1 86
-44 179 -99z m296 -176 c33 -19 57 -39 54 -43 -2 -4 -130 -100 -284 -212 -153
-112 -278 -205 -277 -206 1 -1 168 71 370 159 l369 162 56 -31 c30 -17 57 -35
58 -40 2 -5 -224 -105 -501 -222 l-505 -213 -92 52 -92 53 24 18 c13 9 184
139 379 288 195 148 361 270 369 270 7 1 40 -15 72 -35z m584 -345 c48 -28 83
-55 78 -59 -13 -13 -729 -566 -741 -574 -11 -6 -142 62 -142 74 1 3 32 28 70
55 38 28 70 52 70 55 0 3 -29 23 -65 44 -75 43 -76 43 -190 -6 l-81 -35 -63
36 c-44 25 -58 38 -49 44 26 17 993 415 1010 416 9 1 55 -22 103 -50z m366
-216 c43 -26 79 -50 79 -54 0 -3 -81 -81 -180 -173 -99 -92 -180 -170 -180
-173 0 -5 28 10 309 170 l184 104 59 -35 c33 -19 55 -38 51 -43 -13 -13 -875
-499 -885 -499 -5 0 -19 6 -31 14 -12 8 -41 26 -64 40 l-43 26 230 216 c127
119 230 218 230 221 0 2 -19 -7 -42 -21 -24 -13 -162 -92 -308 -175 l-265
-150 -58 32 c-31 17 -56 36 -54 40 3 9 865 504 880 506 5 1 44 -20 88 -46z
m529 -313 c65 -18 144 -72 163 -113 18 -36 18 -38 0 -74 -25 -48 -124 -118
-156 -109 -12 3 -44 20 -71 37 l-50 32 35 17 c18 10 43 28 53 39 20 22 20 22
-2 44 -36 35 -117 31 -174 -8 -53 -38 -67 -74 -67 -183 -1 -132 -37 -182 -181
-251 -72 -35 -79 -36 -185 -36 -102 0 -114 2 -169 30 -84 42 -116 77 -116 125
0 27 8 48 26 70 27 31 118 90 141 90 14 0 123 -63 123 -71 0 -3 -10 -10 -23
-16 -12 -6 -37 -23 -55 -38 -37 -31 -32 -54 18 -75 39 -16 90 -8 146 25 60 35
75 68 79 178 2 51 7 101 11 112 23 63 105 129 205 165 60 21 190 27 249 10z
m409 -243 c30 -18 56 -37 57 -42 2 -6 -53 -41 -123 -80 -69 -38 -148 -83 -176
-99 l-50 -28 67 -39 c79 -45 47 -54 278 78 95 54 154 82 165 79 10 -4 42 -21
71 -40 l54 -33 -429 -243 c-235 -134 -436 -248 -446 -254 -13 -9 -29 -5 -70
18 -99 55 -109 41 113 166 l201 113 -66 39 c-37 21 -69 38 -71 38 -3 0 -93
-50 -200 -111 -125 -71 -200 -108 -212 -104 -9 3 -41 20 -71 39 l-54 33 29 17
c245 143 853 484 864 485 8 0 39 -14 69 -32z m688 -524 c403 -234 421 -246
439 -289 23 -56 -12 -106 -110 -156 l-40 -21 -63 34 c-35 19 -63 36 -63 39 0
3 18 15 40 28 50 28 52 55 8 82 -18 11 -178 105 -355 208 -178 103 -323 190
-323 194 0 4 115 75 127 78 1 0 154 -88 340 -197z m-241 -270 c271 -114 490
-211 487 -215 -2 -4 -32 -23 -67 -43 l-63 -35 -89 40 c-49 22 -95 40 -103 40
-16 0 -141 -71 -141 -80 0 -3 29 -28 65 -54 36 -26 65 -51 65 -56 0 -5 -25
-23 -56 -40 -40 -23 -61 -30 -73 -24 -40 20 -731 578 -724 585 27 26 171 99
188 95 11 -3 241 -99 511 -213z m-548 -204 c191 -111 358 -210 372 -221 34
-27 60 -68 60 -97 0 -30 -59 -87 -120 -118 l-44 -22 -56 31 c-77 43 -77 44
-31 67 50 26 53 51 9 84 -35 26 -573 339 -646 376 -39 20 -49 41 -19 41 7 0
32 14 57 30 25 16 51 29 58 29 8 1 170 -90 360 -200z m-755 -51 c12 -6 78 -35
147 -63 203 -84 793 -336 819 -350 24 -12 23 -13 -38 -49 -34 -20 -68 -36 -75
-36 -8 0 -54 18 -104 40 l-90 40 -71 -41 c-39 -22 -71 -42 -71 -44 0 -2 32
-27 70 -56 79 -61 79 -57 -14 -109 l-43 -23 -129 102 c-71 56 -178 142 -239
190 -60 49 -141 113 -180 142 -88 66 -185 151 -185 161 0 4 17 17 38 28 20 11
57 34 82 50 53 33 54 34 83 18z m-317 -271 c61 -16 206 -99 234 -134 11 -14
20 -37 20 -52 0 -25 2 -26 66 -28 104 -3 192 -38 310 -124 82 -60 94 -123 34
-179 -16 -15 -82 -57 -147 -94 l-118 -68 -57 31 c-50 28 -325 186 -705 408
-62 36 -113 69 -113 73 0 8 168 106 245 144 77 37 148 44 231 23z"/>
<path d="M3535 7731 c-16 -10 -155 -89 -308 -176 l-279 -157 44 -26 c78 -47
96 -42 343 97 316 178 335 190 335 211 0 12 -17 29 -43 45 -52 30 -54 30 -92
6z"/>
<path d="M4678 6797 c-114 -51 -209 -94 -212 -97 -2 -3 19 -19 48 -36 l53 -31
159 119 c169 127 184 139 169 137 -6 -1 -103 -42 -217 -92z"/>
<path d="M6435 5482 c6 -5 83 -65 173 -133 l164 -123 54 29 c29 16 50 33 46
37 -4 4 -95 46 -202 93 -224 100 -249 110 -235 97z"/>
<path d="M5650 5005 c0 -1 44 -36 98 -76 53 -40 108 -83 122 -96 14 -13 41
-35 61 -49 l37 -25 57 32 57 32 -69 29 c-230 99 -363 155 -363 153z"/>
<path d="M5066 4766 l-39 -23 24 -15 c13 -9 64 -38 112 -66 l88 -52 40 26 c72
45 64 66 -43 120 -81 41 -127 43 -182 10z"/>
<path d="M5442 4567 c-24 -13 -43 -28 -43 -33 1 -5 56 -41 124 -81 l122 -71
49 26 c26 15 51 32 53 40 14 34 -134 129 -214 138 -38 4 -57 0 -91 -19z"/>
</g>
</svg>
